<?xml version="1.0" encoding="UTF-8"?>
<svg version="1.1" xmlns="http://www.w3.org/2000/svg" width="500" height="500">
<path d="M0 0 C165 0 330 0 500 0 C500 165 500 330 500 500 C335 500 170 500 0 500 C0 335 0 170 0 0 Z " fill="#191919" transform="translate(0,0)"/>
<path d="M0 0 C3.80510641 3.02678919 5.24431192 5.60480807 7 10 C8.48683873 12.9665292 10.05995671 15.88663893 11.625 18.8125 C15.87297256 26.81794016 19.98588654 34.87818116 24.00585938 43 C25.06405572 45.12886652 26.13244307 47.25238713 27.203125 49.375 C27.56647949 50.0966333 27.92983398 50.8182666 28.30419922 51.56176758 C28.99711135 52.93732296 29.6913593 54.3122066 30.38720703 55.6862793 C31.66864946 58.23630356 32.90858253 60.7654122 33.9453125 63.42578125 C35.5178879 67.2640301 37.52893638 70.85384716 39.5 74.5 C46 86.52396166 46 86.52396166 46 91 C46.66 91 47.32 91 48 91 C50.03435531 94.72965139 51 96.66905042 51 101 C48.3828125 102.94140625 48.3828125 102.94140625 45 105 C42.93465226 106.61601636 40.89299131 108.26272204 38.875 109.9375 C37.86179687 110.77152344 36.84859375 111.60554688 35.8046875 112.46484375 C33.19356875 114.82503326 31.12662461 117.20764943 29 120 C26.375 122.8125 26.375 122.8125 24 125 C23.34 125 22.68 125 22 125 C21.74347656 125.55429688 21.48695313 126.10859375 21.22265625 126.6796875 C19.82449029 129.33307593 18.18147518 131.68561927 16.4375 134.125 C14.03268334 137.45091748 14.03268334 137.45091748 12 141 C11.34 141 10.68 141 10 141 C9.63648438 142.00546875 9.63648438 142.00546875 9.265625 143.03125 C7.70129224 146.70067252 5.74913571 150.05372874 3.75 153.5 C-3.45274451 165.70572477 -3.45274451 165.70572477 -8 179 C-8.66 179 -9.32 179 -10 179 C-10.12246094 179.73605469 -10.24492187 180.47210938 -10.37109375 181.23046875 C-10.98055504 183.91436972 -11.79085227 185.88559263 -13.0625 188.3125 C-13.51625 189.19421875 -13.97 190.0759375 -14.4375 190.984375 C-14.953125 191.97953125 -15.46875 192.9746875 -16 194 C-17.19247058 196.35181698 -18.38038983 198.70549498 -19.5625 201.0625 C-19.88959961 201.7121875 -20.21669922 202.361875 -20.55371094 203.03125 C-22.78497037 207.48964073 -24.94633749 211.9775408 -27.078125 216.484375 C-27.61236084 217.61093506 -28.14659668 218.73749512 -28.69702148 219.89819336 C-29.76198574 222.14899056 -30.82152681 224.4023629 -31.87524414 226.65844727 C-32.36629639 227.69541748 -32.85734863 228.7323877 -33.36328125 229.80078125 C-33.79938721 230.73059814 -34.23549316 231.66041504 -34.68481445 232.6184082 C-37.32417396 237.39786838 -40.06807005 238.59816845 -45.1875 240.3125 C-46.43402344 240.74046875 -47.68054688 241.1684375 -48.96484375 241.609375 C-49.95266846 241.94678711 -49.95266846 241.94678711 -50.96044922 242.29101562 C-54.41173315 243.49074372 -57.83063553 244.77511435 -61.25 246.0625 C-61.93070557 246.31805664 -62.61141113 246.57361328 -63.31274414 246.83691406 C-66.93508411 248.20250495 -70.53892497 249.60455474 -74.125 251.0625 C-79.10376017 253.07889787 -84.15961918 254.85630929 -89.22265625 256.6484375 C-93.18473991 258.0580549 -97.1251516 259.52290408 -101.0625 261 C-101.73168457 261.24943359 -102.40086914 261.49886719 -103.09033203 261.75585938 C-106.29020835 262.95454814 -109.46103985 264.18998622 -112.62109375 265.4921875 C-118.67557338 267.96997454 -123.43259296 269.85133054 -130 269 C-130.99 268.34 -131.98 267.68 -133 267 C-134.63558588 258.22731208 -130.20593955 251.99340751 -125.95703125 244.66210938 C-123.31233458 240.06897292 -121.12687798 235.38857468 -119.25 230.4375 C-117.51125401 225.96349351 -115.36079413 221.82748891 -113.0625 217.625 C-110.64158149 213.19740536 -108.42229115 208.82613874 -106.5625 204.125 C-104.58893773 199.17122624 -102.22661843 194.55335894 -99.6875 189.875 C-96.51257867 184.01936988 -93.63931234 178.11557671 -91 172 C-88.03964685 165.14053645 -84.72831593 158.56721523 -81.15991211 152.00561523 C-78.39408334 146.87618286 -76.06255758 141.6683848 -73.97265625 136.22265625 C-73 134 -73 134 -71 132 C-70.32858558 130.45687527 -69.70979763 128.890487 -69.125 127.3125 C-67.93076329 124.22075386 -66.7181851 121.33432897 -65 118.5 C-63.41816664 115.88964947 -62.27870198 113.27770427 -61.1953125 110.42578125 C-59.06256276 105.01088976 -56.52783374 99.86328097 -53.875 94.6875 C-52.99553617 92.96318682 -52.1178718 91.23795442 -51.2421875 89.51171875 C-50.66766846 88.38963013 -50.66766846 88.38963013 -50.08154297 87.24487305 C-48.93684776 84.8689199 -47.95304298 82.45837463 -47 80 C-46.34 80 -45.68 80 -45 80 C-44.87705566 79.26894043 -44.75411133 78.53788086 -44.62744141 77.78466797 C-44.01632807 75.07246611 -43.17437161 72.937328 -41.9609375 70.4453125 C-41.54924316 69.59163086 -41.13754883 68.73794922 -40.71337891 67.85839844 C-40.27171387 66.95637695 -39.83004883 66.05435547 -39.375 65.125 C-38.45264136 63.21637948 -37.53076783 61.30752445 -36.609375 59.3984375 C-36.15884766 58.46870117 -35.70832031 57.53896484 -35.24414062 56.58105469 C-33.67151074 53.31852659 -32.14464553 50.03754999 -30.625 46.75 C-27.34633947 39.71306672 -24.0257553 32.69635247 -20.6875 25.6875 C-19.89496826 24.01155762 -19.89496826 24.01155762 -19.08642578 22.30175781 C-18.58739746 21.25729492 -18.08836914 20.21283203 -17.57421875 19.13671875 C-17.12651123 18.19530029 -16.67880371 17.25388184 -16.2175293 16.28393555 C-15 14 -15 14 -13 12 C-11.9426781 9.46585196 -11.02539114 6.89663605 -10.09765625 4.3125 C-7.91633794 -0.28301757 -4.65630771 -0.65188308 0 0 Z " fill="#FDFDFD" transform="translate(251,115)"/>
<path d="M0 0 C0.66 0.33 1.32 0.66 2 1 C2 1.66 2 2.32 2 3 C2.66 3 3.32 3 4 3 C6.45855991 8.26322777 8.56176509 13.36691325 10 19 C10.66 19 11.32 19 12 19 C12.39832031 20.134375 12.79664063 21.26875 13.20703125 22.4375 C14.98675907 27.17788681 17.27990214 31.55339418 19.6875 36 C20.58206299 37.67506961 21.47527095 39.3508635 22.3671875 41.02734375 C22.81030273 41.85991699 23.25341797 42.69249023 23.70996094 43.55029297 C26.91850964 49.64313507 29.94551822 55.8289815 33 62 C33.83235106 63.66715744 34.66555796 65.33388815 35.5 67 C35.8815625 67.76441406 36.263125 68.52882813 36.65625 69.31640625 C37.73565994 71.47208832 38.819831 73.62519439 39.90625 75.77734375 C42.91342911 81.74704089 45.91113798 87.70193326 48.625 93.8125 C50.72098402 98.52313527 53.13016578 103.00583397 55.66796875 107.4921875 C56.9745848 109.95215086 57.97288196 112.41289817 59 115 C60.12520413 117.34629031 61.26829355 119.67593858 62.4375 122 C62.77587891 122.6798999 63.11425781 123.3597998 63.46289062 124.06030273 C65.55836509 128.24051282 67.73133268 132.36871303 69.97265625 136.47265625 C70.47418213 137.40013672 70.97570801 138.32761719 71.49243164 139.28320312 C72.48063782 141.10502323 73.48074891 142.92044706 74.49389648 144.72851562 C77.16449358 149.67221242 78.73783901 153.22398755 78 159 C76.64185757 161.71628485 75.78159157 162.70076209 72.94921875 163.78515625 C68.55177486 164.10549984 65.08308752 162.59271679 61 161.0625 C60.12786865 160.74619629 59.2557373 160.42989258 58.35717773 160.10400391 C55.56532259 159.08511504 52.78188075 158.04579448 50 157 C49.0836377 156.65662598 48.16727539 156.31325195 47.22314453 155.95947266 C39.98547164 153.2394028 32.76926823 150.4648747 25.5625 147.6640625 C17.76343776 144.63786387 9.9121574 141.76922834 2.03930664 138.94140625 C0.24312278 138.29349071 -1.54984291 137.63657895 -3.33935547 136.97045898 C-5.12736406 136.31829032 -6.92943423 135.70356393 -8.74267578 135.12524414 C-14.05830165 133.30818293 -17.02689357 131.76888028 -19.57128906 126.66992188 C-19.87776367 125.97447266 -20.18423828 125.27902344 -20.5 124.5625 C-20.85545898 123.82966797 -21.21091797 123.09683594 -21.57714844 122.34179688 C-22.74927689 119.90808004 -23.87379153 117.45526564 -25 115 C-25.86655179 113.17424 -26.73642794 111.35005465 -27.609375 109.52734375 C-28.90499628 106.82204668 -30.19611228 104.11566117 -31.46289062 101.39672852 C-33.3992986 97.25055148 -35.41153144 93.26493324 -37.75390625 89.33203125 C-42.68363072 80.55546755 -40.63066455 70.39550214 -38.03833008 61.13208008 C-36.11753671 54.71892637 -34.02665973 48.6718235 -30.87060547 42.75170898 C-29.83311175 40.77002735 -29.83311175 40.77002735 -28.875 37.5625 C-28 35 -28 35 -26 34 C-25.23981 32.56801418 -24.54166298 31.10284732 -23.875 29.625 C-20.96554279 23.61501674 -17.36257325 18.06559278 -13 13 C-12.34 13 -11.68 13 -11 13 C-10.67 11.68 -10.34 10.36 -10 9 C-9.34 9 -8.68 9 -8 9 C-7.79375 8.443125 -7.5875 7.88625 -7.375 7.3125 C-5.44999226 4.07498698 -2.96149098 2.31768859 0 0 Z " fill="#FDFDFD" transform="translate(304,221)"/>
<path d="M0 0 C0.66 0.33 1.32 0.66 2 1 C1.34 1.99 0.68 2.98 0 4 C0.185625 4.804375 0.37125 5.60875 0.5625 6.4375 C1 9 1 9 -0.3125 11.3125 C-0.869375 11.869375 -1.42625 12.42625 -2 13 C-2.66 13 -3.32 13 -4 13 C-4.0825 13.5775 -4.165 14.155 -4.25 14.75 C-5.21375714 17.64127142 -6.84256667 18.85808777 -9 21 C-13.39102958 26.6621171 -16.99275164 32.50434353 -20 39 C-20.66 39 -21.32 39 -22 39 C-22.2475 40.155 -22.495 41.31 -22.75 42.5 C-23.87631413 47.03743693 -25.79649202 50.90285235 -28 55 C-28.67038845 56.33146594 -29.33806563 57.664311 -30 59 C-30 58.34 -30 57.68 -30 57 C-30.66 57 -31.32 57 -32 57 C-31.34 54.69 -30.68 52.38 -30 50 C-30.33 50.33 -30.66 50.66 -31 51 C-32.32 50.34 -33.64 49.68 -35 49 C-35 48.01 -35 47.02 -35 46 C-35.99 46 -36.98 46 -38 46 C-38.33 48.64 -38.66 51.28 -39 54 C-41.475 54.495 -41.475 54.495 -44 55 C-44 55.66 -44 56.32 -44 57 C-45.485 57.495 -45.485 57.495 -47 58 C-45.62223181 53.27827359 -43.59101512 49.27437928 -41 45.125 C-40.64421875 44.53203125 -40.2884375 43.9390625 -39.921875 43.328125 C-39.00730003 41.84705957 -38.00976463 40.41787784 -37 39 C-36.34 39 -35.68 39 -35 39 C-34.74863281 38.2884375 -34.49726563 37.576875 -34.23828125 36.84375 C-31.18616707 29.83447833 -25.82757103 22.97057529 -20 18 C-19.34 18 -18.68 18 -18 18 C-17.67 17.01 -17.34 16.02 -17 15 C-16.34 15 -15.68 15 -15 15 C-14.7834375 14.43539062 -14.566875 13.87078125 -14.34375 13.2890625 C-12.55388941 10.24005579 -10.27157062 8.55578846 -7.5 6.375 C-3.62232458 3.33050718 -3.62232458 3.33050718 0 0 Z " fill="#222222" transform="translate(298,217)"/>
<path d="M0 0 C0.66 0.33 1.32 0.66 2 1 C1.01 2.485 1.01 2.485 0 4 C0.185625 4.804375 0.37125 5.60875 0.5625 6.4375 C1 9 1 9 -0.3125 11.3125 C-0.869375 11.869375 -1.42625 12.42625 -2 13 C-2.66 13 -3.32 13 -4 13 C-4.0825 13.598125 -4.165 14.19625 -4.25 14.8125 C-5.20455872 17.5966296 -6.57132271 18.43311142 -9 20 C-9 18.02 -9 16.04 -9 14 C-11.02045442 14.60183749 -13.02111039 15.27306096 -15 16 C-15.33 16.66 -15.66 17.32 -16 18 C-16.66 17.34 -17.32 16.68 -18 16 C-17.01 15.67 -16.02 15.34 -15 15 C-14.7215625 14.41476563 -14.443125 13.82953125 -14.15625 13.2265625 C-12.54002581 10.1142389 -10.24265012 8.5330326 -7.5 6.375 C-3.62232458 3.33050718 -3.62232458 3.33050718 0 0 Z " fill="#282828" transform="translate(298,217)"/>
<path d="M0 0 C0.66 0.66 1.32 1.32 2 2 C1.6730244 4.61580479 1.17960932 6.64078137 0 9 C-2.4375 8.1875 -2.4375 8.1875 -5 7 C-5.33 6.01 -5.66 5.02 -6 4 C-7.32 4.33 -8.64 4.66 -10 5 C-9.875 3.125 -9.875 3.125 -9 1 C-5.3931275 -0.64661571 -3.8148779 -1.27162597 0 0 Z " fill="#161616" transform="translate(276,249)"/>
<path d="M0 0 C0 1.98 0 3.96 0 6 C-1.32 6 -2.64 6 -4 6 C-5.77409808 7.92022703 -5.77409808 7.92022703 -7 10 C-8.5625 8.1875 -8.5625 8.1875 -10 6 C-9.67 5.01 -9.34 4.02 -9 3 C-6.5625 1.875 -6.5625 1.875 -4 1 C-2 0 -2 0 0 0 Z " fill="#161616" transform="translate(289,231)"/>
<path d="M0 0 C0.33 0 0.66 0 1 0 C1.125 4.75 1.125 4.75 0 7 C0.33 7.99 0.66 8.98 1 10 C-0.65 10.33 -2.3 10.66 -4 11 C-4 11.66 -4 12.32 -4 13 C-4.99 13.33 -5.98 13.66 -7 14 C-5.56032356 8.76481294 -3.18303389 4.36973991 0 0 Z " fill="#323232" transform="translate(258,261)"/>
<path d="M0 0 C0.66 0.99 1.32 1.98 2 3 C1.3203125 5.26171875 1.3203125 5.26171875 0.125 7.6875 C-0.26429688 8.49574219 -0.65359375 9.30398438 -1.0546875 10.13671875 C-1.52261719 11.05904297 -1.52261719 11.05904297 -2 12 C-3.625 10.3125 -3.625 10.3125 -5 8 C-4.14484882 4.49388018 -2.71412367 2.3440159 0 0 Z " fill="#262626" transform="translate(175,250)"/>
<path d="M0 0 C0.66 0.33 1.32 0.66 2 1 C0.02 4.96 -1.96 8.92 -4 13 C-6 10 -6 10 -5.375 6.5 C-3.99099871 2.97708762 -3.21801704 1.82354299 0 0 Z " fill="#252525" transform="translate(231,137)"/>
<path d="M0 0 C4.95 1.65 9.9 3.3 15 5 C12 7 12 7 9.3125 6.625 C8.549375 6.41875 7.78625 6.2125 7 6 C6.67 5.01 6.34 4.02 6 3 C4.35 3.33 2.7 3.66 1 4 C0.67 2.68 0.34 1.36 0 0 Z " fill="#313131" transform="translate(351,376)"/>
<path d="M0 0 C2.97 0.99 5.94 1.98 9 3 C7 5 7 5 4 5.1875 C1 5 1 5 -1 4 C-0.67 2.68 -0.34 1.36 0 0 Z " fill="#313131" transform="translate(313,362)"/>
<path d="M0 0 C2.15377564 2.62198774 3.40072174 4.64404172 4 8 C3.01 8.33 2.02 8.66 1 9 C-1.14809171 5.77786243 -1.29386153 4.72224599 -1 1 C-0.67 0.67 -0.34 0.34 0 0 Z " fill="#323232" transform="translate(283,343)"/>
<path d="M0 0 C1.125 1.625 1.125 1.625 2 4 C1.125 7.25 1.125 7.25 0 10 C-0.33 9.34 -0.66 8.68 -1 8 C-1.66 8 -2.32 8 -3 8 C-1.125 1.125 -1.125 1.125 0 0 Z " fill="#282828" transform="translate(269,266)"/>
<path d="M0 0 C1.32 0 2.64 0 4 0 C4.33 1.65 4.66 3.3 5 5 C4.01 5.66 3.02 6.32 2 7 C0 2.25 0 2.25 0 0 Z " fill="#373737" transform="translate(304,217)"/>
<path d="M0 0 C5.57142857 5.14285714 5.57142857 5.14285714 6 9 C3 8 3 8 1.3125 5.625 C0 3 0 3 0 0 Z " fill="#353535" transform="translate(273,326)"/>
<path d="M0 0 C0.66 0 1.32 0 2 0 C3.0625 1.8125 3.0625 1.8125 4 4 C3.67 4.99 3.34 5.98 3 7 C2.67 6.67 2.34 6.34 2 6 C1.67 6.66 1.34 7.32 1 8 C0.34 5.69 -0.32 3.38 -1 1 C-0.67 0.67 -0.34 0.34 0 0 Z " fill="#363636" transform="translate(353,312)"/>
<path d="M0 0 C0.99 0.99 1.98 1.98 3 3 C2.34 4.98 1.68 6.96 1 9 C0.01 8.01 -0.98 7.02 -2 6 C-1.67 5.34 -1.34 4.68 -1 4 C-0.64830932 2.67139075 -0.31229724 1.33841672 0 0 Z " fill="#2D2D2D" transform="translate(332,266)"/>
<path d="M0 0 C0.66 0 1.32 0 2 0 C2 0.66 2 1.32 2 2 C2.99 2.33 3.98 2.66 5 3 C5.33 5.64 5.66 8.28 6 11 C2.17179787 9.08589894 1.29482585 3.88447755 0 0 Z " fill="#3D3D3D" transform="translate(280,170)"/>
<path d="M0 0 C0 0.99 0 1.98 0 3 C-3.63 3.33 -7.26 3.66 -11 4 C-10 2 -10 2 -6.625 0.875 C-3 0 -3 0 0 0 Z " fill="#414141" transform="translate(165,371)"/>
<path d="M0 0 C0.66 1.32 1.32 2.64 2 4 C0 6 0 6 -3 8 C-2.45276317 4.62537285 -1.9451 2.91765 0 0 Z " fill="#202020" transform="translate(164,272)"/>
<path d="M0 0 C1 2 1 2 1 6 C-0.98 6.66 -2.96 7.32 -5 8 C-3.62845496 5.04590299 -2.01136276 2.55991624 0 0 Z " fill="#424242" transform="translate(271,243)"/>
<path d="M0 0 C1.41687119 4.25061356 0.19320039 6.71851625 -1 11 C-2.1875 9.4375 -2.1875 9.4375 -3 7 C-1.625 3.25 -1.625 3.25 0 0 Z " fill="#212121" transform="translate(236,122)"/>
</svg>
